<?xml version="1.0" encoding="utf-8"?>
<!-- Generator: Adobe Illustrator 24.1.0, SVG Export Plug-In . SVG Version: 6.00 Build 0)  -->
<svg version="1.1" id="Layer_1" xmlns="http://www.w3.org/2000/svg" xmlns:xlink="http://www.w3.org/1999/xlink" x="0px" y="0px"
	 viewBox="0 0 512 512" style="enable-background:new 0 0 512 512;" xml:space="preserve">
<style type="text/css">
	.st0{fill:#13BF6D;}
	.st1{fill:#F0C020;}
	.st2{fill:#FC5D3D;}
	.st3{fill:#76FFBA;}
</style>
<g>
	<g>
		<path class="st0" d="M472.1,135c2.6-3.5,2.8-8.2,0.5-11.9l-10-16c-5.5-8.8-18-6-19.6,3.4l-4.2,23.1c-0.7,4-3.7,7.3-7.7,8.4
			l-7.7,2.1c-15.6,4.2-30,11.8-42.2,22.3c-12.6,10.9-31.4,10.4-43.5-1.1l-30.4-33.6c-6.1-6.7-14.7-10.5-23.7-10.5h-194
			c-19.7-0.5-36.8,13.6-40,33.1l-10.9,64.8c-2.5,14.9,0.5,30.1,8.4,43l28.8,46.8c24.2,39.2,117.4,46.9,145.4,94.9
			c7.9,13.6,28,12.7,34.6-1.8c9.6-21.1,28.7-36.4,51.4-41l22.5-4.6c20.3-4.2,40.9,0,57.6,10.7c15.4,9.9,34.5-6.3,27.1-23.3
			c-6.1-13.8-4.2-28.4,3.2-39.6l21.2-32.2c5-7.6,5.8-17.3,2.1-25.6c-2.1-4.6-2.8-9.8-2-14.8l4.6-31.3c0.3-2.4,1.5-4.6,3.3-6.2
			l16.5-15.3c3.2-3,4.2-7.5,2.7-11.6l-3.9-10c-1.3-3.4-0.8-7.2,1.4-10.1L472.1,135z"/>
	</g>
	<g>
		<path class="st1" d="M262.5,316c-16.8,8.6-36.5,9.8-53.8,2.2c-84.8-37.4-111.2-72.4-111.9-98c-0.7-25.6,24.3-41.9,42-41.9h97.4
			c27.7,0,44.4,11.6,61.8,28.2c16.8,16.1,38.9,24.9,62.1,24.9c24.5,0,24.2,18.3,19.1,26.1c-10.2,15.4-13.4,19.8-17.4,29
			c-2.7,6.1-8.8,10.3-16.4,10.3C325,296.9,284.9,304.5,262.5,316L262.5,316z"/>
	</g>
	<g>
		<path class="st2" d="M226.4,276.2c-12.4-5.5-68.4-34.9-68.4-34.9c-4.1-1.3-6.1-4.9-6-8.5c0.1-4.4,3.1-8.8,8.8-8.8h83.6
			c4.9,0,9.5,2.1,12.7,5.7c2.6,2.9,5.5,6.1,9,9.5c8.9,8.7,5.8,23.7-5.8,28c-6.2,2.3-12.6,5.1-19.2,8.6
			C236.5,278.1,231.1,278.3,226.4,276.2L226.4,276.2z"/>
	</g>
	<g>
		<path class="st3" d="M113.9,318.9c-2.6-0.8-5.1-1.8-7.5-3c-2.9-1.5-4-5-2.5-7.9c1.5-2.9,5-4,7.9-2.5c1.7,0.9,3.6,1.7,5.5,2.2
			c3.1,0.9,4.8,4.2,3.9,7.3C120.3,318.1,117,319.8,113.9,318.9L113.9,318.9z M87.9,297.5l-27.2-44.2c-5.9-9.6-8.1-21-6.2-32
			c0.5-3.2,3.5-5.3,6.7-4.8c3.2,0.5,5.3,3.5,4.8,6.7c-1.4,8.2,0.2,16.7,4.7,23.9l27.2,44.2c1.7,2.7,0.8,6.3-1.9,8
			S89.6,300.3,87.9,297.5z"/>
	</g>
	<g>
		<path class="st3" d="M414.4,255.7c-1.1-2.5-2-5.2-2.7-7.8c-0.8-3.1,1.1-6.3,4.2-7.1c3.1-0.8,6.3,1.1,7.1,4.2
			c0.5,2.1,1.2,4.1,2.1,6c1.3,2.9,0,6.4-3,7.7C419.1,259.9,415.7,258.6,414.4,255.7L414.4,255.7z M416.3,229
			c-3.2-0.5-5.4-3.4-4.9-6.6l3.8-25.9c1.1-7.7,4.9-14.8,10.6-20.1l12.9-12c2.4-2.2,6-2.1,8.2,0.3s2.1,6-0.3,8.2l-12.9,12
			c-3.8,3.5-6.2,8.2-7,13.3l-3.8,25.9C422.4,227.3,419.5,229.5,416.3,229L416.3,229z"/>
	</g>
</g>
<g>
	<path d="M265.1,321.2c21-10.9,60.6-18.4,80.3-18.4c9.4,0,17.9-5.4,21.6-13.8c3.5-7.9,6-11.6,17-28.1c8-12.4,4.6-35.1-23.9-35.1
		c-21.7,0-42.4-8.3-58.1-23.3c-19.2-18.5-37.8-29.9-65.4-29.9h-97.8c-21.5,0.1-47.9,18.8-47.9,46.6c0,47.3,72.1,85.3,115.4,104.4
		C225.2,331.9,246.8,330.6,265.1,321.2z M102.6,219.2c0-21.1,21.3-35,36.1-35h97.5c25.1,0.1,39.7,9.4,57.8,26.6
		c17.9,17.1,41.4,26.5,66.1,26.5c20.2,0.1,16.5,13.7,14.2,17.1c-8.7,13.4-13.1,19.1-17.9,29.8c-1.9,4.3-6.1,6.9-11.1,6.9
		c-22.8,0.1-62.6,8.1-85.6,19.7c-14.8,7.7-32.8,9.1-48.8,2.1C174.1,296.6,102.6,260,102.6,219.2L102.6,219.2z"/>
	<path d="M243.7,280.9c6.2-3.2,12.2-5.9,18.5-8.3c15.7-5.9,19.8-26.2,7.9-37.7c-3.5-3.4-6.3-6.5-8.7-9.2c-4.3-4.9-10.5-7.7-17-7.7
		h-83.6c-8.1,0-14.7,6.6-14.7,14.7c0,9,6.5,12.1,10.4,14.2c16.8,8.8,56.9,29.8,67.6,34.5C230.5,284.4,237.7,284.1,243.7,280.9
		L243.7,280.9z M160.7,236.1c-1.7-0.7-3-1.4-3-3.2c0-1.5,1.2-3.1,3-3.1h83.6c3.2,0,6.2,1.4,8.3,3.8c2.5,2.8,5.6,6.2,9.3,9.8
		c5.8,5.6,4,15.5-3.8,18.4c-6.8,2.5-13.3,5.4-19.9,8.9c-2.9,1.5-6.5,1.6-9.6,0.2h0C218.6,266.4,162.1,237,160.7,236.1L160.7,236.1z"
		/>
	<path d="M419.8,341.1c-5.1-13.1-3.7-24.3,2.7-34.1l21.2-32.2c6-9.1,7.2-20.8,2.5-31.2c-1.7-3.8-2.1-7.8-1.6-11.5l4.6-31.3
		c0.2-1.1,0.7-2.1,1.5-2.8l16.5-15.3c5-4.6,6.5-11.8,4.2-17.9l-3.9-10.1c-0.6-1.5-0.4-3.3,0.6-4.5l8.7-11.7c4-5.4,4.4-12.7,0.7-18.5
		l-10-16c-8-13-27.7-9.6-30.3,5.4l-4.2,23.1c-0.3,1.8-1.7,3.3-3.5,3.8l-7.7,2.1c-16.3,4.4-31.7,12.5-44.5,23.5
		c-10.2,8.7-25.5,8.6-35.5-0.8l-30.3-33.5c-7.2-7.9-17.4-12.5-28-12.5h-194c-24.5,0-42.3,17-45.8,37.9L33,217.8
		c-2.7,15.9,0.4,32.7,9.2,47l28.8,46.8c14.7,23.9,27.6,22.9,104.9,61.4c2.8,1.4,6.4,0.2,7.8-2.6c1.4-2.9,0.3-6.4-2.6-7.8
		c-78.1-39.1-87.9-37.2-100.2-57.1l-28.8-46.8c-7.4-12-9.8-26.1-7.6-39l10.9-64.8c2.6-15.5,15.6-28.2,34.1-28.2h194.1
		c7.4,0,14.4,3.1,19.4,8.6c0.4,0.5,30.2,33.5,30.7,33.9c14.2,13.6,36.4,14.1,51.3,1.4c11.5-9.9,25.3-17.2,39.9-21.1l7.7-2.1
		c6.1-1.6,10.8-6.7,11.9-12.9l4.2-23.1c0.7-4.1,6.1-5.7,9-1.4l10,16c1,1.6,1,3.7-0.2,5.4l-8.7,11.7c-3.2,4.4-4.3,10.2-2.2,15.7
		l3.9,10c0.7,1.7,0.3,3.8-1.2,5.2l-16.5,15.3c-2.7,2.5-4.5,6-5.1,9.7l-4.6,31.3c-0.9,5.7-0.2,12.1,2.4,18c2.9,6.5,2.3,14.1-1.6,20.1
		l-21.2,32.2c-8.4,12.7-10.5,28.5-3.6,45.2c5.1,11.4-7.8,22.9-18.6,16c-19-12.2-41.4-15.7-61.9-11.5l-22.5,4.6
		c-23.2,4.6-44.7,20.4-55.5,44.3c-4.6,10.1-18.6,10.8-24.2,1.2c-2.1-3.7-4-6.6-5.9-9.2c-1.8-2.5-5.6-3.1-8.1-1.3
		c-2.5,1.8-3.2,5.4-1.3,8.1c1.7,2.3,3.3,4.9,5.3,8.3c10.2,17.7,36.5,16.4,44.9-2.3c9.1-20.1,27.3-33.8,47.2-37.7l22.5-4.6
		c18.1-3.7,37.3-0.4,53.3,9.9C404.3,384.7,429.6,363.3,419.8,341.1L419.8,341.1z"/>
	<path d="M195.6,383.8L195.6,383.8c2.8,1.8,6.3,0.9,8.1-1.7c1.7-2.7,1-6.3-1.7-8.1c-2.6-1.7-6.4-0.9-8,1.7
		C192.1,378.4,192.9,382,195.6,383.8L195.6,383.8z"/>
</g>
</svg>
