<?xml version="1.0" encoding="utf-8"?>
<!-- Generator: Adobe Illustrator 24.1.0, SVG Export Plug-In . SVG Version: 6.00 Build 0)  -->
<svg version="1.1" id="Layer_1" xmlns="http://www.w3.org/2000/svg" xmlns:xlink="http://www.w3.org/1999/xlink" x="0px" y="0px"
	 viewBox="0 0 283.5 283.5" style="enable-background:new 0 0 283.5 283.5;" xml:space="preserve">
<style type="text/css">
	.st0{fill:#FFB919;}
</style>
<g>
	<g>
		<g>
			<path class="st0" d="M190.9,175.6c-0.6-0.6-0.6-1.1-0.3-1.7c0.8-2,1.7-3.9,2.5-5.9c0.3-0.6,0.8-1.1,1.4-1.1l18.2-2
				c2.8-0.3,5-2.8,5-5.6v-15.7c0-2.8-2.2-5.3-5-5.6l-17.9-2c-0.6,0-1.1-0.6-1.4-1.1c-0.8-2-1.7-3.9-2.5-5.9
				c-0.3-0.6-0.3-1.4,0.3-1.7l11.5-14.3c2-2.2,1.7-5.6-0.3-7.6l-11.2-11.2c-2-2-5.3-2.2-7.6-0.3l-14.3,11.5
				c-0.6,0.3-1.1,0.6-1.7,0.3c-2-0.8-3.9-1.7-5.9-2.5c-0.6-0.3-1.1-0.8-1.1-1.4l-2.2-18.2c-0.3-2.8-2.8-5-5.6-5h-15.7
				c-2.8,0-5.3,2.2-5.6,5l-2,18.2c0,0.6-0.6,1.1-1.1,1.4c-2,0.8-3.9,1.7-5.9,2.5c-0.6,0.3-1.4,0.3-1.7-0.3l-14.3-11.5
				c-2.2-2-5.6-1.7-7.6,0.3l-11.2,11.2c-2,2-2.2,5.3-0.3,7.6L99,127.4c0.3,0.6,0.6,1.1,0.3,1.7c-0.8,2-1.7,3.9-2.5,5.9
				c-0.3,0.6-0.8,1.1-1.4,1.1l-18.2,2c-2.8,0.3-5,2.8-5,5.6v15.7c0,2.8,2.2,5.3,5,5.6l18.2,2c0.6,0,1.1,0.6,1.4,1.1
				c0.8,2,1.7,3.9,2.5,5.9c0.3,0.6,0.3,1.4-0.3,1.7L87.5,190c-2,2.2-1.7,5.6,0.3,7.6L99,208.7c2,2,5.3,2.2,7.6,0.3l14.3-11.5
				c0.6-0.3,1.1-0.6,1.7-0.3c2,0.8,3.9,1.7,5.9,2.5c0.6,0.3,1.1,0.8,1.1,1.4l2,18.2c0.3,2.8,2.8,5,5.6,5h15.7c2.8,0,5.3-2.2,5.6-5
				l2-18.2c0-0.6,0.6-1.1,1.1-1.4c2-0.8,3.9-1.7,5.9-2.5c0.6-0.3,1.4-0.3,1.7,0.3l14.3,11.5c2.2,2,5.6,1.7,7.6-0.3l11.2-11.2
				c2-2,2.2-5.3,0.3-7.6L190.9,175.6z M144.9,178.7c-14.9,0-27.2-12.1-27.2-27.2c0-14.9,12.1-27.2,27.2-27.2
				c14.9,0,27.2,12.1,27.2,27.2C172.1,166.4,159.8,178.7,144.9,178.7z"/>
			<path class="st0" d="M38.1,151.5c0-57.2,46.5-103.7,103.7-103.7h27.8v10.7c0,2.8,1.4,5.3,3.9,6.7c1.1,0.6,2.5,0.8,3.6,0.8
				c1.4,0,2.8-0.3,4.2-1.1l33.1-21c2.2-1.4,3.6-3.9,3.6-6.4s-1.4-5-3.6-6.4l0,0l-33-21.4c-2.2-1.4-5.3-1.7-7.9-0.3
				c-2.5,1.4-3.9,3.9-3.9,6.7v10.7h-27.8C73.2,27,17.4,82.8,17.4,151.5c0,5.6,4.8,10.4,10.4,10.4S38.1,157.1,38.1,151.5z"/>
			<path class="st0" d="M263.5,126.3c-1.1-5-5.3-8.4-10.1-8.4c-0.6,0-1.4,0-2,0.3c-5.6,1.1-9.3,6.7-8.1,12.3c0.8,4.5,1.4,9,2,13.5
				c0.3,5.3,5,9.5,10.4,9.5h0.8c5.6-0.6,10.1-5.3,9.5-11.2C265.5,137,264.7,131.6,263.5,126.3z"/>
			<path class="st0" d="M229.9,97.1c2.8,4.8,9.5,6.4,14.3,3.4c2.2-1.4,3.9-3.6,4.8-6.4c0.6-2.8,0.3-5.6-1.4-7.9
				c-2.8-4.5-5.9-9-9.5-13.2c-1.7-2.2-4.2-3.4-7-3.9c-0.3,0-0.8,0-1.1,0c-2.2,0-4.8,0.8-6.4,2.2c-2.2,1.7-3.4,4.2-3.9,7
				c-0.3,2.8,0.6,5.6,2.2,7.6C224.8,89.6,227.6,93.2,229.9,97.1z"/>
			<path class="st0" d="M254.3,172.3c-0.8-0.3-2-0.3-2.8-0.3c-4.5,0-8.7,3.1-10.1,7.6c-1.1,4.2-2.8,8.7-4.5,12.6
				c-2.2,5.3,0.3,11.5,5.6,13.7s11.5-0.3,13.7-5.6c2.2-5,3.9-10.1,5.3-15.4c0.8-2.8,0.3-5.6-0.8-7.9
				C259.3,174.8,257.1,173.1,254.3,172.3z"/>
			<path class="st0" d="M225.1,218.8h-0.3c-2.8,0-5.3,1.4-7.3,3.4c-3.1,3.4-6.4,6.4-9.8,9.3c-4.5,3.6-5,10.1-1.4,14.6
				c3.6,4.2,10.4,5,14.6,1.4c4.2-3.4,8.1-7.3,11.8-11.2c3.9-4.2,3.6-10.9-0.6-14.6C230.2,219.9,227.6,218.8,225.1,218.8z"/>
			<path class="st0" d="M127.5,254.1c-4.5-0.6-9-1.4-13.2-2.8c-0.8-0.3-2-0.3-2.8-0.3c-1.7,0-3.6,0.6-5,1.4
				c-2.5,1.4-4.2,3.6-4.8,6.2c-1.4,5.6,1.7,11.2,7.3,12.9c5,1.4,10.4,2.5,16,3.4c5.6,0.8,10.9-3.4,11.8-9c0.3-2.8-0.3-5.6-2-7.6
				C132.9,256.1,130.4,254.4,127.5,254.1z"/>
			<path class="st0" d="M71.5,227.8c-2-1.7-4.5-2.8-7-2.8h-0.3c-2.8,0-5.3,1.4-7.3,3.4s-2.8,4.8-2.8,7.6s1.4,5.3,3.4,7.3
				c3.9,3.6,8.1,7,12.6,10.1c4.5,3.1,11.2,2,14.6-2.5c3.4-4.8,2.2-11.2-2.5-14.6C78.2,233.7,74.8,230.6,71.5,227.8z"/>
			<path class="st0" d="M44.3,186.9c-0.8-2.5-2.8-4.8-5.3-5.9c-1.4-0.6-2.8-1.1-4.5-1.1c-1.1,0-2.5,0.3-3.6,0.6
				c-5.3,2-8.1,7.9-6.2,13.5c2,5,3.9,10.1,6.4,14.9c2.5,5,9,7,14,4.5s7-9,4.5-14C47.6,195.3,45.7,191.1,44.3,186.9z"/>
			<path class="st0" d="M184.5,249.7c-1.4-0.6-2.8-1.1-4.5-1.1c-1.1,0-2.2,0.3-3.4,0.6c-4.2,1.4-8.7,2.8-12.9,3.6
				c-2.8,0.6-5,2.2-6.4,4.5c-1.4,2.2-2,5-1.4,7.9c1.1,5.6,7,9.3,12.3,8.1c5.3-1.1,10.7-2.5,15.7-4.5c2.5-0.8,4.8-2.8,5.9-5.3
				c1.1-2.5,1.4-5.3,0.3-7.9C188.7,253,187,250.8,184.5,249.7z"/>
		</g>
	</g>
</g>
</svg>
